<svg xmlns="http://www.w3.org/2000/svg" width="31" height="31" viewBox="0 0 31 31">
  <path id="youtube" d="M30.8,11.345c0-3.633-2-6.555-4.481-6.555-3.355-.21-6.776-.291-10.27-.291h-1.09c-3.488,0-6.915.081-10.27.291C2.216,4.791.212,7.729.212,11.362Q-.015,15.672,0,19.983q-.009,4.311.206,8.629c0,3.633,2,6.579,4.475,6.579,3.524.218,7.139.315,10.815.307q5.523.024,10.815-.307c2.477,0,4.481-2.946,4.481-6.579.145-2.882.212-5.756.206-8.638Q31.016,15.664,30.8,11.345ZM12.535,27.9V12.04l8.781,7.927Z" transform="translate(0 -4.5)" fill="#fff"/>
</svg>
